<?xml version="1.0" standalone="no"?>
<!DOCTYPE svg PUBLIC "-//W3C//DTD SVG 20010904//EN"
 "http://www.w3.org/TR/2001/REC-SVG-20010904/DTD/svg10.dtd">
<svg version="1.0" xmlns="http://www.w3.org/2000/svg"
 width="260.000000pt" height="260.000000pt" viewBox="0 0 260.000000 260.000000"
 preserveAspectRatio="xMidYMid meet">
<metadata>
Created by potrace 1.11, written by Peter Selinger 2001-2013
</metadata>
<g transform="translate(0.000000,260.000000) scale(0.100000,-0.100000)"
fill="#000000" stroke="none">
<path d="M1225 2268 c-39 -37 -462 -771 -471 -818 -10 -45 3 -79 39 -100 31
-19 52 -20 497 -20 445 0 466 1 497 20 36 21 49 55 39 100 -6 34 -427 773
-459 808 -12 13 -31 28 -41 34 -23 12 -13 -6 242 -452 l181 -315 -230 -3
c-126 -1 -332 -1 -458 0 l-230 3 195 340 c204 355 248 435 239 435 -3 0 -21
-15 -40 -32z"/>
<path d="M793 1210 c-36 -21 -49 -55 -39 -101 9 -48 432 -779 471 -817 46 -43
84 -43 130 1 47 45 465 776 472 826 6 47 -8 76 -47 96 l-30 15 -33 -52 c-18
-29 -120 -205 -227 -390 -106 -186 -196 -338 -200 -338 -4 0 -102 166 -219
370 -117 203 -220 379 -229 390 -17 20 -17 20 -49 0z"/>
<path d="M498 1183 c-14 -16 -125 -202 -247 -414 -192 -335 -221 -391 -221
-428 0 -49 31 -85 81 -95 54 -11 881 -7 921 4 52 15 81 55 75 102 -3 25 -83
174 -230 430 -201 351 -263 445 -282 426 -3 -3 94 -178 215 -389 l220 -384
-457 -3 c-251 -1 -458 0 -461 2 -2 3 90 171 206 373 116 202 214 376 218 386
9 26 -9 21 -38 -10z"/>
<path d="M1946 1188 c-39 -36 -467 -791 -473 -836 -6 -47 23 -87 75 -102 40
-11 867 -15 921 -4 50 10 81 46 81 95 0 37 -29 93 -221 428 -205 358 -258 441
-282 441 -15 0 -4 -21 215 -403 116 -202 208 -370 206 -373 -3 -2 -210 -3
-462 -2 l-456 3 201 350 c228 397 243 425 230 425 -6 0 -21 -10 -35 -22z"/>
</g>
</svg>
